<?xml version="1.0" standalone="no"?>
<!DOCTYPE svg PUBLIC "-//W3C//DTD SVG 20010904//EN"
 "http://www.w3.org/TR/2001/REC-SVG-20010904/DTD/svg10.dtd">
<svg version="1.0" xmlns="http://www.w3.org/2000/svg"
 width="867.000000pt" height="773.000000pt" viewBox="0 0 867.000000 773.000000"
 preserveAspectRatio="xMidYMid meet">

<g transform="translate(0.000000,773.000000) scale(0.100000,-0.100000)"
fill="#000000" stroke="none">
<path d="M2225 7390 c3 -5 0 -10 -7 -10 -11 0 -10 -2 0 -9 9 -6 0 -12 -31 -20
-29 -7 -53 -21 -67 -38 -64 -83 -95 -130 -98 -148 -2 -19 -2 -19 13 2 22 31
151 109 221 134 46 16 75 20 132 16 40 -2 78 -9 85 -16 9 -9 3 -10 -23 -4 -74
17 -152 9 -210 -19 -49 -24 -144 -98 -125 -98 4 0 -3 -9 -16 -21 l-24 -20 25
6 c14 4 51 18 83 32 32 13 60 23 63 21 2 -3 -10 -20 -26 -38 -17 -19 -30 -37
-30 -41 0 -4 -35 -25 -77 -46 l-77 -38 37 -3 c30 -3 37 -7 33 -20 -21 -69 -36
-144 -32 -166 2 -13 0 -26 -6 -28 -5 -2 21 -4 58 -3 86 0 96 -9 112 -100 26
-141 61 -151 116 -34 26 57 53 97 88 130 41 39 54 60 73 121 23 72 23 73 66
85 60 16 105 16 137 -1 15 -8 73 -26 130 -40 109 -28 196 -66 225 -99 l18 -21
15 23 c9 12 22 20 30 17 8 -3 14 -1 14 4 0 9 -3 12 -50 50 l-25 21 36 -3 c28
-2 45 5 75 29 21 17 36 35 31 39 -4 4 -13 2 -19 -4 -30 -30 -57 -8 -42 32 8
21 70 32 89 16 9 -8 15 -8 15 -2 0 6 -24 22 -52 36 -29 15 -71 44 -92 66 -22
22 -46 40 -55 40 -12 0 -12 3 -3 12 10 10 19 10 45 0 l32 -12 -28 24 c-20 17
-24 26 -15 30 7 3 3 4 -10 2 -12 -2 -20 0 -17 4 10 16 -68 30 -165 31 l-95 1
60 12 60 11 -40 19 c-37 18 -50 19 -185 9 -79 -6 -151 -8 -160 -3 -8 4 -24 4
-34 0 -12 -4 -36 1 -60 13 l-40 20 -14 -22 c-8 -11 -24 -21 -36 -20 -11 0 -15
3 -8 6 6 2 12 12 12 21 0 14 -12 17 -71 20 -46 1 -68 -1 -64 -8z m300 -56 c-9
-9 -14 -23 -11 -30 3 -8 1 -14 -5 -14 -20 0 -22 33 -4 46 26 19 40 17 20 -2z
m262 -30 c-3 -3 -12 -4 -19 -1 -8 3 -5 6 6 6 11 1 17 -2 13 -5z m-384 -211
c-10 -15 -25 -33 -33 -40 -8 -6 -12 -14 -9 -18 8 -8 -40 -61 -52 -57 -5 1 -9
-5 -9 -13 0 -16 -55 -55 -77 -55 -7 0 13 26 45 58 31 31 77 81 101 110 45 55
66 65 34 15z"/>
<path d="M2633 7373 c9 -2 25 -2 35 0 9 3 1 5 -18 5 -19 0 -27 -2 -17 -5z"/>
<path d="M3207 6964 c-4 -4 -7 -14 -7 -23 0 -11 3 -12 11 -4 6 6 10 16 7 23
-2 6 -7 8 -11 4z"/>
<path d="M2528 6754 c-60 -26 -45 -35 45 -28 67 5 96 3 160 -15 101 -27 119
-27 115 1 -4 28 -70 47 -193 53 -69 4 -99 2 -127 -11z"/>
<path d="M2997 6693 c-19 -18 -6 -34 25 -31 44 4 53 38 10 38 -16 0 -32 -3
-35 -7z"/>
<path d="M2009 6595 c-6 -93 -5 -113 7 -142 14 -36 37 -42 65 -17 17 16 17 18
-11 53 -16 20 -35 59 -44 86 -13 44 -15 47 -17 20z"/>
<path d="M2616 6589 c-31 -24 -33 -44 -7 -59 25 -13 64 -13 56 0 -3 6 2 10 13
10 22 0 52 30 52 51 -1 8 -8 2 -16 -13 -16 -30 -30 -38 -20 -12 8 20 -11 44
-34 44 -9 0 -29 -9 -44 -21z"/>
<path d="M2917 6529 c-15 -20 -12 -59 3 -59 11 0 60 59 60 71 0 18 -49 9 -63
-12z"/>
<path d="M2540 6244 c0 -9 44 -54 53 -54 19 0 4 38 -18 48 -29 14 -35 14 -35
6z"/>
<path d="M2652 6173 c-9 -13 -14 -15 -18 -5 -3 6 -13 12 -21 12 -12 0 -13 -3
-3 -14 21 -26 106 -76 129 -76 35 0 20 21 -29 39 -36 14 -45 21 -43 39 3 27 2
27 -15 5z"/>
<path d="M1920 6123 c-17 -22 -21 -37 -17 -67 3 -21 11 -44 17 -50 9 -8 11 -6
6 10 -4 13 2 43 14 73 11 29 20 54 20 56 0 14 -21 2 -40 -22z"/>
<path d="M2796 6125 c-11 -8 -17 -17 -14 -21 8 -8 48 14 48 26 0 14 -12 12
-34 -5z"/>
<path d="M2019 5918 c-1 -2 -3 -28 -5 -58 -6 -63 -9 -68 -32 -54 -12 8 -22 8
-35 0 -15 -9 -26 -2 -72 46 -50 51 -56 55 -68 39 -6 -9 -26 -23 -44 -30 -35
-14 -41 -43 -16 -73 13 -15 6 -16 -99 -12 -62 2 -107 1 -100 -2 21 -10 13 -22
-10 -16 -17 4 -20 2 -15 -11 5 -14 -1 -17 -41 -17 -61 -1 -93 -20 -107 -61 -8
-25 -23 -40 -56 -56 -41 -21 -42 -22 -16 -23 l29 0 -32 -26 c-25 -21 -30 -32
-25 -51 3 -15 -1 -34 -13 -51 -21 -29 -37 -72 -34 -86 2 -4 -2 -14 -8 -21 -21
-26 -22 -121 -1 -275 20 -147 28 -196 51 -300 5 -25 9 -56 10 -70 0 -41 -27
-4 -44 60 l-15 55 0 -79 c-1 -43 6 -106 15 -140 26 -103 111 -345 118 -338 4
3 4 -1 1 -10 -3 -8 1 -42 9 -74 27 -109 40 -224 56 -494 15 -260 17 -281 29
-327 13 -49 44 -113 81 -164 l26 -36 22 37 c23 40 112 106 165 121 50 14 184
11 256 -7 84 -21 158 -57 257 -127 89 -62 124 -93 124 -108 0 -6 4 -8 9 -5 5
3 14 -1 21 -9 9 -11 10 -18 1 -29 -9 -10 -7 -19 9 -37 10 -13 19 -19 20 -12 0
6 -4 15 -10 18 -16 10 -11 37 6 33 11 -2 18 -15 19 -38 2 -19 8 -36 14 -38 6
-2 18 -10 26 -18 13 -13 14 -11 10 18 -5 32 -5 32 6 8 7 -14 11 -30 10 -37 -3
-22 276 -223 309 -223 6 0 10 -4 10 -9 0 -5 10 -13 23 -17 12 -3 29 -12 37
-18 17 -14 36 -14 63 -2 11 5 23 4 30 -3 6 -6 18 -11 27 -11 9 0 35 -9 58 -20
22 -11 46 -20 52 -20 13 0 90 77 90 90 0 5 -7 10 -15 10 -8 0 -15 -7 -15 -15
0 -17 -26 -20 -35 -5 -11 18 23 60 48 60 43 0 52 -15 57 -97 l5 -77 70 -12
c39 -6 104 -14 146 -16 l77 -5 -2 136 c-1 135 6 223 23 291 6 23 8 -14 4 -106
-3 -78 -2 -190 3 -250 8 -99 9 -81 15 196 4 198 10 314 18 330 l12 25 -7 -25
c-3 -14 -8 -154 -11 -312 -6 -304 2 -419 38 -557 10 -40 16 -78 12 -84 -4 -6
-1 -7 7 -2 10 6 12 4 7 -8 -3 -9 -2 -19 3 -22 5 -3 7 -11 4 -19 -3 -7 11 -80
31 -162 20 -82 40 -167 45 -189 5 -22 13 -60 19 -85 11 -45 43 -264 56 -373 7
-63 21 -75 28 -24 l4 32 1 -34 2 -34 98 7 c141 10 267 26 315 40 39 11 42 14
41 47 -1 19 -11 93 -22 164 -72 443 -86 621 -77 993 l7 292 67 0 c111 0 558
-51 583 -66 4 -2 13 5 21 17 11 16 15 55 16 162 2 272 19 447 31 317 5 -47 7
-24 8 86 l2 152 -31 6 c-17 3 -120 6 -228 6 -391 0 -1041 38 -1378 80 -295 37
-548 92 -643 140 -59 30 -70 52 -70 145 0 75 2 84 26 106 23 22 35 24 132 26
59 1 110 3 115 3 4 0 7 6 7 14 0 8 15 17 35 20 63 12 37 23 -67 29 -57 3 -113
9 -126 13 -47 14 -67 108 -41 195 13 41 24 46 152 64 53 8 57 15 26 46 -18 18
-29 21 -73 16 -28 -3 -65 -9 -82 -12 l-31 -7 -71 174 c-99 245 -127 349 -146
548 -19 206 -26 310 -20 310 2 0 26 -16 53 -35 27 -19 55 -33 63 -30 14 6 33
-36 40 -90 3 -16 7 -13 26 18 12 21 26 36 32 32 13 -8 90 -249 90 -284 0 -43
16 -79 55 -123 19 -21 35 -44 35 -52 0 -45 68 -208 138 -331 l80 -140 73 -12
c87 -14 171 -15 297 -7 l90 7 12 43 c25 88 119 140 178 98 40 -28 47 -9 8 21
-44 34 -130 45 -190 25 -35 -11 -37 -10 -81 31 -25 23 -45 48 -45 55 0 7 16
18 35 25 33 12 34 13 17 34 -100 127 -181 242 -228 327 -31 57 -89 157 -129
223 -40 66 -80 136 -89 156 -10 20 -33 55 -52 78 -19 22 -37 50 -39 63 -5 25
-46 61 -90 79 -16 7 -52 33 -79 58 -42 40 -47 43 -41 21 3 -14 19 -43 34 -66
28 -41 64 -146 96 -284 10 -41 24 -87 31 -102 8 -15 14 -39 14 -54 0 -43 -20
-17 -101 129 -93 169 -117 207 -130 207 -11 0 -10 -14 7 -70 l7 -25 -23 24
c-20 21 -24 35 -25 105 -1 59 4 93 17 125 23 55 32 112 24 144 -5 23 -10 25
-63 23 -32 0 -70 3 -85 8 l-27 8 19 -68 c11 -38 20 -90 20 -117 0 -60 -25
-124 -43 -110 -96 72 -237 188 -237 195 0 5 5 6 12 2 8 -5 9 -2 5 9 -3 10 -2
17 3 17 6 0 10 7 10 15 0 18 -57 48 -135 70 -33 10 -72 24 -87 32 -16 7 -28
12 -29 11z m546 -468 c12 -20 -6 -50 -30 -50 -29 0 -38 13 -30 40 7 21 49 28
60 10z m113 -55 c-3 -3 -9 2 -12 12 -6 14 -5 15 5 6 7 -7 10 -15 7 -18z m202
-477 c0 -12 -6 -9 -26 13 -19 22 -19 22 4 8 12 -8 22 -17 22 -21z m61 -3 c28
-35 40 -63 29 -70 -6 -4 -10 -3 -9 2 1 4 1 15 0 23 -1 11 -4 11 -13 2 -9 -9
-16 -5 -30 18 -10 17 -18 35 -18 40 0 16 23 7 41 -15z m309 -11 c13 -15 16
-171 4 -183 -3 -3 -14 0 -24 7 -12 7 -20 8 -20 2 0 -14 -33 -13 -48 2 -24 24
-14 66 23 94 19 14 35 33 35 40 0 19 -19 18 -26 -1 -8 -21 -44 -19 -44 2 0 44
72 71 100 37z m-726 -639 c-3 -8 -15 -17 -26 -21 -11 -3 -29 -15 -39 -25 -20
-20 -103 -27 -113 -10 -3 5 20 20 52 34 87 39 135 47 126 22z m-604 -83 c0 -4
-37 -25 -82 -46 -87 -41 -153 -52 -153 -26 0 9 34 25 100 47 102 33 135 39
135 25z m78 -364 c7 -7 12 -29 12 -50 0 -26 5 -41 16 -45 15 -5 15 -7 0 -15
-9 -5 -16 -22 -16 -37 0 -27 -2 -28 -46 -27 -32 1 -48 6 -55 19 -6 9 -20 17
-32 18 l-22 0 23 9 c12 5 25 17 28 25 4 9 19 22 35 31 31 15 39 44 14 44 -8 0
-15 -4 -15 -10 0 -5 -9 -10 -20 -10 -22 0 -25 12 -10 41 12 22 68 27 88 7z
m2199 -370 c-3 -8 -6 -5 -6 6 -1 11 2 17 5 13 3 -3 4 -12 1 -19z m10 -65 c-3
-10 -5 -2 -5 17 0 19 2 27 5 18 2 -10 2 -26 0 -35z m-596 -90 c12 -32 -2 -51
-21 -28 -11 14 -11 18 -1 25 8 4 10 13 7 19 -4 6 -5 11 -1 11 3 0 10 -12 16
-27z m16 -95 c-3 -8 -6 -5 -6 6 -1 11 2 17 5 13 3 -3 4 -12 1 -19z m-74 -268
c4 -16 -3 -24 -35 -40 -23 -11 -45 -17 -50 -14 -10 6 19 44 34 44 5 0 16 7 24
15 20 19 21 19 27 -5z m176 -920 c0 -8 -7 1 -14 20 -18 46 -17 64 0 25 8 -16
14 -37 14 -45z m49 -175 c0 -11 -6 3 -14 30 -7 28 -13 55 -13 60 2 17 27 -69
27 -90z m49 -307 c-3 -8 -6 -5 -6 6 -1 11 2 17 5 13 3 -3 4 -12 1 -19z m30
-180 c-3 -8 -6 -5 -6 6 -1 11 2 17 5 13 3 -3 4 -12 1 -19z"/>
<path d="M3202 4798 c-17 -17 -15 -38 3 -38 9 0 15 9 15 25 0 29 -1 30 -18 13z"/>
<path d="M1950 3700 c-12 -22 -5 -44 11 -35 7 5 10 55 2 55 -1 0 -7 -9 -13
-20z"/>
<path d="M1951 5866 c-8 -10 -9 -16 -1 -21 5 -3 13 1 16 10 9 22 -1 29 -15 11z"/>
<path d="M6210 4359 c0 -44 4 -68 10 -64 6 3 10 35 10 71 0 36 -4 64 -10 64
-6 0 -10 -30 -10 -71z"/>
<path d="M5258 4413 c7 -3 16 -2 19 1 4 3 -2 6 -13 5 -11 0 -14 -3 -6 -6z"/>
<path d="M5076 4258 c-11 -35 -13 -58 -6 -53 5 3 10 1 12 -4 1 -5 28 1 58 14
30 13 68 24 85 25 57 0 10 18 -68 24 -59 5 -78 4 -81 -6z"/>
<path d="M5695 4200 c3 -5 17 -10 31 -10 13 0 24 5 24 10 0 6 -14 10 -31 10
-17 0 -28 -4 -24 -10z"/>
<path d="M5848 4203 c7 -3 16 -2 19 1 4 3 -2 6 -13 5 -11 0 -14 -3 -6 -6z"/>
<path d="M3613 4105 c46 -36 91 -49 68 -21 -7 8 -23 17 -38 21 -14 3 -32 13
-40 20 -8 8 -19 15 -25 15 -6 0 10 -16 35 -35z"/>
<path d="M5040 4109 c0 -4 19 -10 43 -14 23 -4 87 -15 141 -26 55 -10 101 -17
103 -15 3 2 -19 9 -49 15 -181 37 -238 47 -238 40z"/>
<path d="M3247 4049 c-74 -12 -69 -19 12 -19 53 0 72 -3 69 -12 -3 -7 -24 -16
-48 -20 -52 -9 -64 -18 -23 -18 16 0 74 -7 129 -15 119 -18 267 -20 244 -4
-12 9 -10 10 8 6 18 -4 25 0 33 19 11 30 12 64 1 48 -14 -21 -90 -26 -124 -8
-25 13 -50 15 -117 11 -48 -2 -77 -1 -66 4 l20 8 -20 1 c-11 1 -31 3 -45 5
-14 1 -47 -2 -73 -6z"/>
<path d="M6118 4053 c7 -3 16 -2 19 1 4 3 -2 6 -13 5 -11 0 -14 -3 -6 -6z"/>
<path d="M5505 4020 c19 -8 123 -14 114 -6 -2 2 -33 6 -69 9 -40 4 -57 2 -45
-3z"/>
<path d="M3470 3910 c0 -14 7 -20 23 -20 16 0 23 6 24 20 1 15 -4 20 -23 20
-17 0 -24 -5 -24 -20z"/>
<path d="M3542 3903 c2 -10 13 -19 26 -21 17 -3 22 2 22 17 0 16 -6 21 -26 21
-19 0 -25 -5 -22 -17z"/>
<path d="M3643 3853 c9 -2 23 -2 30 0 6 3 -1 5 -18 5 -16 0 -22 -2 -12 -5z"/>
<path d="M5117 3258 c-7 -175 -10 -558 -4 -558 1 0 58 -7 127 -15 123 -14 126
-15 155 -49 17 -19 39 -56 49 -83 26 -66 129 -287 137 -293 3 -3 14 -21 24
-40 34 -67 144 -226 223 -320 83 -99 146 -161 428 -422 93 -86 192 -184 219
-217 44 -54 51 -59 60 -44 18 32 122 129 179 167 56 37 65 49 46 61 -5 3 -10
26 -10 50 0 35 6 52 31 79 l30 35 -28 7 c-15 4 -31 12 -35 18 -4 6 -8 -37 -8
-96 l0 -108 -35 0 -35 0 0 179 c0 130 -3 183 -12 193 -66 70 -225 267 -263
327 -5 8 -16 22 -24 31 -18 18 -134 198 -228 352 -106 172 -142 237 -213 382
-82 170 -133 241 -210 294 -54 37 -196 105 -288 137 -37 13 -121 44 -187 69
-66 25 -120 46 -121 46 0 0 -4 -82 -7 -182z m624 -518 c17 -9 19 -22 19 -100
0 -72 -3 -90 -14 -90 -8 0 -18 4 -21 10 -4 6 -13 5 -26 -3 -17 -10 -22 -9 -35
7 -22 31 -17 56 21 90 19 18 35 38 35 44 0 17 -27 15 -34 -3 -7 -21 -36 -8
-29 13 15 42 44 53 84 32z m880 -1039 c23 -18 24 -26 26 -145 l2 -126 -29 0
c-16 0 -32 4 -35 10 -4 6 -15 4 -29 -5 -29 -20 -51 -11 -66 25 -19 45 -4 86
46 127 43 36 58 73 30 73 -8 0 -18 -9 -21 -20 -5 -14 -15 -20 -37 -20 -29 0
-30 2 -24 33 12 62 87 89 137 48z"/>
<path d="M5701 2626 c-11 -13 -11 -20 -3 -28 15 -15 24 -5 20 23 -3 21 -4 21
-17 5z"/>
<path d="M6555 1536 c-17 -25 -11 -56 11 -56 10 0 14 12 14 40 0 46 -4 49 -25
16z"/>
<path d="M3021 2624 c0 -11 3 -14 6 -6 3 7 2 16 -1 19 -3 4 -6 -2 -5 -13z"/>
<path d="M3201 2626 c-11 -13 -11 -20 -3 -28 15 -15 24 -5 20 23 -3 21 -4 21
-17 5z"/>
<path d="M5102 2350 c0 -19 2 -27 5 -17 2 9 2 25 0 35 -3 9 -5 1 -5 -18z"/>
<path d="M6742 1675 c0 -16 2 -22 5 -12 2 9 2 23 0 30 -3 6 -5 -1 -5 -18z"/>
<path d="M2783 1613 c9 -2 23 -2 30 0 6 3 -1 5 -18 5 -16 0 -22 -2 -12 -5z"/>
<path d="M6821 1532 c-12 -22 -8 -42 9 -42 12 0 18 23 10 45 -7 19 -7 19 -19
-3z"/>
<path d="M2691 1458 c-24 -29 -24 -30 -3 -19 22 12 49 51 35 50 -4 0 -19 -14
-32 -31z"/>
<path d="M2352 1276 c-17 -7 -37 -17 -44 -24 -7 -7 -18 -12 -25 -12 -7 0 -10
-6 -7 -14 3 -7 -5 -30 -16 -50 -16 -26 -18 -36 -8 -36 7 0 19 14 26 30 16 35
58 60 100 60 18 0 38 10 57 30 l29 30 -40 -1 c-21 -1 -54 -7 -72 -13z"/>
<path d="M2232 1185 c0 -16 2 -22 5 -12 2 9 2 23 0 30 -3 6 -5 -1 -5 -18z"/>
<path d="M7380 1042 c0 -17 16 -51 40 -85 52 -72 53 -92 4 -84 -20 3 -62 20
-95 37 -68 35 -105 38 -159 10 -21 -11 -74 -33 -117 -50 -43 -18 -82 -35 -86
-40 -5 -4 -2 -27 6 -52 9 -24 20 -77 26 -118 5 -40 16 -79 23 -86 14 -15 185
27 633 155 444 127 538 158 529 172 -3 5 9 15 27 23 l32 13 -38 7 c-21 4 -103
2 -182 -5 -108 -9 -160 -9 -211 -1 -37 6 -102 15 -144 21 -62 7 -96 19 -177
60 -55 28 -102 51 -105 51 -3 0 -6 -13 -6 -28z"/>
<path d="M1222 1042 c-18 -2 -30 -8 -27 -13 4 -5 1 -9 -5 -9 -6 0 -27 -7 -46
-15 l-36 -15 22 -18 c21 -17 22 -21 10 -56 -17 -52 -4 -57 16 -6 12 31 26 46
50 56 54 23 79 6 110 -71 11 -26 18 65 9 111 -5 27 -11 32 -38 35 -17 2 -47 3
-65 1z"/>
<path d="M6816 996 c-34 -45 -34 -60 2 -51 38 9 48 21 32 39 -7 9 -10 23 -6
31 9 24 1 18 -28 -19z"/>
<path d="M3917 853 c-9 -2 -15 -9 -12 -14 4 -5 -3 -9 -15 -9 -30 0 -90 -27
-90 -40 0 -7 9 -14 20 -17 11 -3 20 -9 20 -14 0 -17 -23 -58 -31 -54 -4 3 -5
-4 -2 -16 7 -24 17 -16 41 32 24 46 76 76 112 62 27 -10 27 -10 26 31 -1 36
-5 41 -26 43 -14 0 -33 -1 -43 -4z"/>
<path d="M3765 802 c-12 -8 -45 -58 -45 -68 0 -3 7 -1 15 6 8 7 21 10 28 7 10
-4 13 5 13 29 -1 19 -1 34 -1 34 0 0 -5 -4 -10 -8z"/>
<path d="M2110 751 c0 -5 6 -12 13 -14 6 -3 0 -6 -14 -6 -14 -1 -41 -6 -59
-13 -27 -9 -30 -13 -18 -22 14 -11 43 -56 41 -66 0 -3 -3 -17 -7 -32 -10 -45
10 -32 29 17 16 44 53 75 89 75 21 0 56 -48 56 -76 0 -13 5 -24 10 -24 14 0
13 84 -2 131 l-11 39 -64 0 c-34 0 -63 -4 -63 -9z"/>
<path d="M4270 722 l-35 -17 0 -193 c0 -192 0 -194 24 -213 13 -10 31 -19 41
-19 9 0 29 -9 44 -21 25 -20 26 -23 12 -44 -14 -22 -14 -23 22 -29 48 -8 180
-6 257 4 33 4 50 8 38 9 -13 0 -23 5 -23 10 0 15 56 51 79 51 26 0 29 -35 4
-49 -23 -13 -12 -14 21 -1 22 8 24 12 16 41 -12 40 -23 53 -83 94 -28 18 -60
51 -72 72 -12 21 -45 54 -75 74 -44 30 -57 46 -71 85 -38 108 -48 129 -69 146
-28 23 -85 23 -130 0z"/>
<path d="M4060 647 c0 -27 31 -117 41 -117 9 0 6 27 -13 87 -10 35 -28 54 -28
30z"/>
<path d="M4005 640 c3 -5 8 -10 11 -10 2 0 4 5 4 10 0 6 -5 10 -11 10 -5 0 -7
-4 -4 -10z"/>
<path d="M2017 570 c3 -11 7 -20 9 -20 2 0 4 9 4 20 0 11 -4 20 -9 20 -5 0 -7
-9 -4 -20z"/>
</g>
</svg>
